# xmcd CD database file
#
# Track frame offsets:
#	150
#	15062
#	32493
#	46806
#	60428
#	73711
#	92342
#	109638
#	122514
#	138552
#	155687
#	168082
#	183780
#
# Disc length: 2644 seconds
#
# Revision: 1
# Processed by: cddbd v1.4PL0 Copyright (c) Steve Scherf et al.
# Submitted via: CDex 1.40Release
#
DISCID=900a520d
DTITLE=Sean Costello - Moanin' For Molasses
DYEAR=2001
DGENRE=Blues
TTITLE0=Moanin' For Molasses 
TTITLE1=You're Killing My Love
TTITLE2=Don't Be Reckless With My Heart
TTITLE3=You're A Part Of Me
TTITLE4=One Kiss
TTITLE5=No Lie
TTITLE6=The Plumber
TTITLE7=I Want You So Bad
TTITLE8=It Takes Time
TTITLE9=Miles Away
TTITLE10=Low-life Blues
TTITLE11=You Can't Win With A Losing Hand
TTITLE12=Good Advice
EXTD=YEAR: 2001 ID3G: 0
EXTT0=
EXTT1=
EXTT2=
EXTT3=
EXTT4=
EXTT5=
EXTT6=
EXTT7=
EXTT8=
EXTT9=
EXTT10=
EXTT11=
EXTT12=
PLAYORDER=
